# xmcd
#
# Track frame offsets:
#	150
#	10830
#	21578
#	32468
#	45188
#	57856
#	68596
#	79516
#	87549
#	98289
#	109787
#	119680
#
# Disc length: 1743 seconds
#
# Revision: 1
# Processed by: cddbd v1.5.2PL0 Copyright (c) Steve Scherf et al.
# Submitted via: audiograbber 1.83.01
#
DISCID=8706cd0c
DTITLE=Jim Reeves - Moonlight And Roses
DYEAR=1964
DGENRE=Country
TTITLE0=Moonlight And Roses (Bring Memories Of You)
TTITLE1=Mexicali Rose
TTITLE2=Carolina Moon
TTITLE3=Rosa Rio
TTITLE4=Oh What It Seemed To Be
TTITLE5=What's In It For Me
TTITLE6=Roses
TTITLE7=One Dozen Roses
TTITLE8=Moon River
TTITLE9=There's A New Moon Over My Shoulder
TTITLE10=It's Only A Paper Moon
TTITLE11=When I Lost You
EXTD=
EXTT0=
EXTT1=
EXTT2=
EXTT3=
EXTT4=
EXTT5=
EXTT6=
EXTT7=
EXTT8=
EXTT9=
EXTT10=
EXTT11=
PLAYORDER=
